<mxfile host="app.diagrams.net" agent="Mozilla/5.0 (Macintosh; Intel Mac OS X 10_15_7) AppleWebKit/537.36 (KHTML, like Gecko) Chrome/129.0.0.0 Safari/537.36" version="24.7.17">
  <diagram id="leHyyaPuebAC05LJhnpK" name="第 1 页">
    <mxGraphModel dx="982" dy="665" grid="1" gridSize="10" guides="1" tooltips="1" connect="1" arrows="1" fold="1" page="1" pageScale="1" pageWidth="827" pageHeight="1169" math="0" shadow="0">
      <root>
        <mxCell id="0" />
        <mxCell id="1" parent="0" />
        <mxCell id="OZiz9f181TXtZBBnhAOY-12" style="edgeStyle=orthogonalEdgeStyle;rounded=0;orthogonalLoop=1;jettySize=auto;html=1;entryX=0.5;entryY=0;entryDx=0;entryDy=0;" edge="1" parent="1" source="OZiz9f181TXtZBBnhAOY-1" target="OZiz9f181TXtZBBnhAOY-2">
          <mxGeometry relative="1" as="geometry" />
        </mxCell>
        <mxCell id="OZiz9f181TXtZBBnhAOY-1" value="转为候选者" style="rounded=0;whiteSpace=wrap;html=1;" vertex="1" parent="1">
          <mxGeometry x="320" y="120" width="80" height="40" as="geometry" />
        </mxCell>
        <mxCell id="OZiz9f181TXtZBBnhAOY-13" style="edgeStyle=orthogonalEdgeStyle;rounded=0;orthogonalLoop=1;jettySize=auto;html=1;entryX=0.5;entryY=0;entryDx=0;entryDy=0;" edge="1" parent="1" source="OZiz9f181TXtZBBnhAOY-2" target="OZiz9f181TXtZBBnhAOY-3">
          <mxGeometry relative="1" as="geometry" />
        </mxCell>
        <mxCell id="OZiz9f181TXtZBBnhAOY-2" value="currentTerm++&lt;div&gt;投自己一票&lt;/div&gt;" style="rounded=0;whiteSpace=wrap;html=1;" vertex="1" parent="1">
          <mxGeometry x="315" y="200" width="90" height="40" as="geometry" />
        </mxCell>
        <mxCell id="OZiz9f181TXtZBBnhAOY-6" style="edgeStyle=orthogonalEdgeStyle;rounded=0;orthogonalLoop=1;jettySize=auto;html=1;exitX=0.25;exitY=1;exitDx=0;exitDy=0;entryX=0.5;entryY=0;entryDx=0;entryDy=0;" edge="1" parent="1" source="OZiz9f181TXtZBBnhAOY-3" target="OZiz9f181TXtZBBnhAOY-4">
          <mxGeometry relative="1" as="geometry" />
        </mxCell>
        <mxCell id="OZiz9f181TXtZBBnhAOY-7" style="edgeStyle=orthogonalEdgeStyle;rounded=0;orthogonalLoop=1;jettySize=auto;html=1;exitX=0.75;exitY=1;exitDx=0;exitDy=0;entryX=0.5;entryY=0;entryDx=0;entryDy=0;" edge="1" parent="1" source="OZiz9f181TXtZBBnhAOY-3" target="OZiz9f181TXtZBBnhAOY-5">
          <mxGeometry relative="1" as="geometry" />
        </mxCell>
        <mxCell id="OZiz9f181TXtZBBnhAOY-8" value="收到来自领导者的 RPC请求" style="edgeLabel;html=1;align=center;verticalAlign=middle;resizable=0;points=[];" vertex="1" connectable="0" parent="OZiz9f181TXtZBBnhAOY-7">
          <mxGeometry x="-0.6154" relative="1" as="geometry">
            <mxPoint x="75" as="offset" />
          </mxGeometry>
        </mxCell>
        <mxCell id="OZiz9f181TXtZBBnhAOY-10" style="edgeStyle=orthogonalEdgeStyle;rounded=0;orthogonalLoop=1;jettySize=auto;html=1;entryX=1;entryY=0.5;entryDx=0;entryDy=0;exitX=1;exitY=0.5;exitDx=0;exitDy=0;" edge="1" parent="1" source="OZiz9f181TXtZBBnhAOY-3" target="OZiz9f181TXtZBBnhAOY-2">
          <mxGeometry relative="1" as="geometry">
            <Array as="points">
              <mxPoint x="500" y="320" />
              <mxPoint x="500" y="220" />
            </Array>
          </mxGeometry>
        </mxCell>
        <mxCell id="OZiz9f181TXtZBBnhAOY-3" value="广播 RequestVote RPC" style="rounded=0;whiteSpace=wrap;html=1;" vertex="1" parent="1">
          <mxGeometry x="290" y="300" width="140" height="40" as="geometry" />
        </mxCell>
        <mxCell id="OZiz9f181TXtZBBnhAOY-4" value="成为领导者，发送心跳" style="rounded=0;whiteSpace=wrap;html=1;" vertex="1" parent="1">
          <mxGeometry x="180" y="420" width="140" height="40" as="geometry" />
        </mxCell>
        <mxCell id="OZiz9f181TXtZBBnhAOY-5" value="转为跟随者" style="rounded=0;whiteSpace=wrap;html=1;" vertex="1" parent="1">
          <mxGeometry x="400" y="420" width="90" height="40" as="geometry" />
        </mxCell>
        <mxCell id="OZiz9f181TXtZBBnhAOY-9" value="收到多数派节点的投票" style="text;html=1;align=center;verticalAlign=middle;resizable=0;points=[];autosize=1;strokeColor=none;fillColor=none;" vertex="1" parent="1">
          <mxGeometry x="190" y="350" width="140" height="30" as="geometry" />
        </mxCell>
        <mxCell id="OZiz9f181TXtZBBnhAOY-11" value="选举超时" style="text;html=1;align=center;verticalAlign=middle;resizable=0;points=[];autosize=1;strokeColor=none;fillColor=none;" vertex="1" parent="1">
          <mxGeometry x="420" y="188" width="70" height="30" as="geometry" />
        </mxCell>
      </root>
    </mxGraphModel>
  </diagram>
</mxfile>
